<svg xmlns="http://www.w3.org/2000/svg" width="28" height="35" fill="none"><path fill="url(#a)" fill-rule="evenodd" d="M11.848 25.112s.697-6.832.754-7.978A2.926 2.926 0 0 1 14 11.628a2.926 2.926 0 0 1 1.39 5.51c.06 1.136.762 7.974.762 7.974h-4.305ZM26.25 5.072c-.145 0-.22-.003-.295-.004l-.179-.003A17.279 17.279 0 0 1 14.001 0 17.267 17.267 0 0 1 1.324 5.066c-.117-.003-.232-.008-.348-.012a18.018 18.018 0 0 1-.89-.062L0 4.994v8.447c0 9.455 5.554 17.618 13.59 21.425l.198.093a.544.544 0 0 0 .418 0C22.353 31.195 28 22.976 28 13.442V4.997c-.04 0-.078-.001-.117-.003a17.55 17.55 0 0 1-1.633.078Z" clip-rule="evenodd"/><defs><linearGradient id="a" x1="0" x2="0" y1="0" y2="35" gradientUnits="userSpaceOnUse"><stop stop-color="#4DA3FC"/><stop offset="1" stop-color="#027EFF"/></linearGradient></defs></svg>